<?xml version="1.0" encoding="UTF-8" standalone="no"?>
<!DOCTYPE svg PUBLIC "-//W3C//DTD SVG 1.1//EN"
 "http://www.w3.org/Graphics/SVG/1.1/DTD/svg11.dtd">
<!-- Generated by graphviz version 2.43.0 (0)
 -->
<!-- Title: G Pages: 1 -->
<svg width="596pt" height="947pt"
 viewBox="0.00 0.00 596.00 947.00" xmlns="http://www.w3.org/2000/svg" xmlns:xlink="http://www.w3.org/1999/xlink">
<g id="graph0" class="graph" transform="scale(1 1) rotate(0) translate(4 943)">
<title>G</title>
<polygon fill="white" stroke="transparent" points="-4,4 -4,-943 592,-943 592,4 -4,4"/>
<g id="clust1" class="cluster">
<title>cluster_6060769020065305153</title>
<polygon fill="none" stroke="black" points="8,-8 8,-931 580,-931 580,-8 8,-8"/>
<text text-anchor="middle" x="294" y="-915.8" font-family="Helvetica,Arial,sans-serif" font-size="14.00">WHY JANITOR?</text>
</g>
<!-- node_d6706377097187264138 -->
<g id="node1" class="node">
<title>node_d6706377097187264138</title>
<g id="a_node1"><a xlink:href="javascript:
                { window.open(location.pathname.match(/.*\//) + 'tmp/' + 'tmprx1azthz.html', '_blank', 'width=800,height=200'); }
            " xlink:title="&lt;TABLE&gt;">
<polygon fill="#880000" fill-opacity="0.133333" stroke="#880000" stroke-opacity="0.133333" points="363.5,-900 224.5,-900 224.5,-856 363.5,-856 363.5,-900"/>
<text text-anchor="start" x="256.5" y="-881.8" font-family="Helvetica,Arial,sans-serif" font-size="14.00"> </text>
<text text-anchor="start" x="260.5" y="-881.8" font-family="Helvetica,Arial,sans-serif" font-weight="bold" font-size="14.00">ObjState#0</text>
<text text-anchor="start" x="237" y="-867.8" font-family="Helvetica,Arial,sans-serif" font-size="14.00">DataFrame (4, 4) 0</text>
</a>
</g>
</g>
<!-- node_9030299476992308626 -->
<g id="node7" class="node">
<title>node_9030299476992308626</title>
<polygon fill="lightgrey" stroke="transparent" points="472,-805 116,-805 116,-769 472,-769 472,-805"/>
<text text-anchor="start" x="128" y="-783.8" font-family="Helvetica,Arial,sans-serif" font-style="italic" font-size="14.00">remove_columns</text>
<text text-anchor="start" x="233" y="-783.8" font-family="Helvetica,Arial,sans-serif" font-size="14.00"> &#160;(</text>
<text text-anchor="start" x="246" y="-783.8" font-family="Helvetica,Arial,sans-serif" font-weight="bold" font-size="14.00">df</text>
<text text-anchor="start" x="259" y="-783.8" font-family="Helvetica,Arial,sans-serif" font-size="14.00">, column_names = [&#39;Company1&#39;])</text>
</g>
<!-- node_d6706377097187264138&#45;&gt;node_9030299476992308626 -->
<g id="edge1" class="edge">
<title>node_d6706377097187264138&#45;&gt;node_9030299476992308626</title>
<path fill="none" stroke="black" d="M294,-855.91C294,-843.78 294,-828.41 294,-815.36"/>
<polygon fill="black" stroke="black" points="297.5,-815.07 294,-805.07 290.5,-815.07 297.5,-815.07"/>
<text text-anchor="middle" x="300" y="-826.8" font-family="Helvetica,Arial,sans-serif" font-size="14.00">df</text>
</g>
<!-- node_685094445650686846 -->
<g id="node2" class="node">
<title>node_685094445650686846</title>
<g id="a_node2"><a xlink:href="javascript:
                { window.open(location.pathname.match(/.*\//) + 'tmp/' + 'tmpbqxb8zmg.html', '_blank', 'width=800,height=200'); }
            " xlink:title="&lt;TABLE&gt;">
<polygon fill="#880000" fill-opacity="0.133333" stroke="#880000" stroke-opacity="0.133333" points="363.5,-732 224.5,-732 224.5,-688 363.5,-688 363.5,-732"/>
<text text-anchor="start" x="256.5" y="-713.8" font-family="Helvetica,Arial,sans-serif" font-size="14.00"> </text>
<text text-anchor="start" x="260.5" y="-713.8" font-family="Helvetica,Arial,sans-serif" font-weight="bold" font-size="14.00">ObjState#2</text>
<text text-anchor="start" x="237" y="-699.8" font-family="Helvetica,Arial,sans-serif" font-size="14.00">DataFrame (4, 3) 0</text>
</a>
</g>
</g>
<!-- node_d3732962444798011135 -->
<g id="node8" class="node">
<title>node_d3732962444798011135</title>
<polygon fill="lightgrey" stroke="transparent" points="487,-637 101,-637 101,-601 487,-601 487,-637"/>
<text text-anchor="start" x="113" y="-615.8" font-family="Helvetica,Arial,sans-serif" font-style="italic" font-size="14.00">dropna</text>
<text text-anchor="start" x="156" y="-615.8" font-family="Helvetica,Arial,sans-serif" font-size="14.00"> &#160;(</text>
<text text-anchor="start" x="169" y="-615.8" font-family="Helvetica,Arial,sans-serif" font-weight="bold" font-size="14.00">df</text>
<text text-anchor="start" x="182" y="-615.8" font-family="Helvetica,Arial,sans-serif" font-size="14.00">, kwargs = {&#39;subset&#39;: [&#39;Company2&#39;, &#39;Company3&#39;]})</text>
</g>
<!-- node_685094445650686846&#45;&gt;node_d3732962444798011135 -->
<g id="edge3" class="edge">
<title>node_685094445650686846&#45;&gt;node_d3732962444798011135</title>
<path fill="none" stroke="black" d="M294,-687.91C294,-675.78 294,-660.41 294,-647.36"/>
<polygon fill="black" stroke="black" points="297.5,-647.07 294,-637.07 290.5,-647.07 297.5,-647.07"/>
<text text-anchor="middle" x="300" y="-658.8" font-family="Helvetica,Arial,sans-serif" font-size="14.00">df</text>
</g>
<!-- node_d138919966706346484 -->
<g id="node3" class="node">
<title>node_d138919966706346484</title>
<g id="a_node3"><a xlink:href="javascript:
                { window.open(location.pathname.match(/.*\//) + 'tmp/' + 'tmprootoxcg.html', '_blank', 'width=800,height=200'); }
            " xlink:title="&lt;TABLE&gt;">
<polygon fill="#880000" fill-opacity="0.133333" stroke="#880000" stroke-opacity="0.133333" points="363.5,-564 224.5,-564 224.5,-520 363.5,-520 363.5,-564"/>
<text text-anchor="start" x="256.5" y="-545.8" font-family="Helvetica,Arial,sans-serif" font-size="14.00"> </text>
<text text-anchor="start" x="260.5" y="-545.8" font-family="Helvetica,Arial,sans-serif" font-weight="bold" font-size="14.00">ObjState#4</text>
<text text-anchor="start" x="237" y="-531.8" font-family="Helvetica,Arial,sans-serif" font-size="14.00">DataFrame (3, 3) 0</text>
</a>
</g>
</g>
<!-- node_d4667482954859720337 -->
<g id="node9" class="node">
<title>node_d4667482954859720337</title>
<polygon fill="lightgrey" stroke="transparent" points="568,-469 20,-469 20,-433 568,-433 568,-469"/>
<text text-anchor="start" x="32" y="-447.8" font-family="Helvetica,Arial,sans-serif" font-style="italic" font-size="14.00">rename_column</text>
<text text-anchor="start" x="131" y="-447.8" font-family="Helvetica,Arial,sans-serif" font-size="14.00"> &#160;(</text>
<text text-anchor="start" x="144" y="-447.8" font-family="Helvetica,Arial,sans-serif" font-weight="bold" font-size="14.00">df</text>
<text text-anchor="start" x="157" y="-447.8" font-family="Helvetica,Arial,sans-serif" font-size="14.00">, old_column_name = Company2, new_column_name = Amazon)</text>
</g>
<!-- node_d138919966706346484&#45;&gt;node_d4667482954859720337 -->
<g id="edge5" class="edge">
<title>node_d138919966706346484&#45;&gt;node_d4667482954859720337</title>
<path fill="none" stroke="black" d="M294,-519.91C294,-507.78 294,-492.41 294,-479.36"/>
<polygon fill="black" stroke="black" points="297.5,-479.07 294,-469.07 290.5,-479.07 297.5,-479.07"/>
<text text-anchor="middle" x="300" y="-490.8" font-family="Helvetica,Arial,sans-serif" font-size="14.00">df</text>
</g>
<!-- node_d4972693726235307042 -->
<g id="node4" class="node">
<title>node_d4972693726235307042</title>
<g id="a_node4"><a xlink:href="javascript:
                { window.open(location.pathname.match(/.*\//) + 'tmp/' + 'tmpoixx9a_v.html', '_blank', 'width=800,height=200'); }
            " xlink:title="&lt;TABLE&gt;">
<polygon fill="#880000" fill-opacity="0.133333" stroke="#880000" stroke-opacity="0.133333" points="363.5,-396 224.5,-396 224.5,-352 363.5,-352 363.5,-396"/>
<text text-anchor="start" x="256.5" y="-377.8" font-family="Helvetica,Arial,sans-serif" font-size="14.00"> </text>
<text text-anchor="start" x="260.5" y="-377.8" font-family="Helvetica,Arial,sans-serif" font-weight="bold" font-size="14.00">ObjState#6</text>
<text text-anchor="start" x="237" y="-363.8" font-family="Helvetica,Arial,sans-serif" font-size="14.00">DataFrame (3, 3) 0</text>
</a>
</g>
</g>
<!-- node_d6662892302909316973 -->
<g id="node10" class="node">
<title>node_d6662892302909316973</title>
<polygon fill="lightgrey" stroke="transparent" points="572,-301 16,-301 16,-265 572,-265 572,-301"/>
<text text-anchor="start" x="28" y="-279.8" font-family="Helvetica,Arial,sans-serif" font-style="italic" font-size="14.00">rename_column</text>
<text text-anchor="start" x="127" y="-279.8" font-family="Helvetica,Arial,sans-serif" font-size="14.00"> &#160;(</text>
<text text-anchor="start" x="140" y="-279.8" font-family="Helvetica,Arial,sans-serif" font-weight="bold" font-size="14.00">df</text>
<text text-anchor="start" x="153" y="-279.8" font-family="Helvetica,Arial,sans-serif" font-size="14.00">, old_column_name = Company3, new_column_name = Facebook)</text>
</g>
<!-- node_d4972693726235307042&#45;&gt;node_d6662892302909316973 -->
<g id="edge7" class="edge">
<title>node_d4972693726235307042&#45;&gt;node_d6662892302909316973</title>
<path fill="none" stroke="black" d="M294,-351.91C294,-339.78 294,-324.41 294,-311.36"/>
<polygon fill="black" stroke="black" points="297.5,-311.07 294,-301.07 290.5,-311.07 297.5,-311.07"/>
<text text-anchor="middle" x="300" y="-322.8" font-family="Helvetica,Arial,sans-serif" font-size="14.00">df</text>
</g>
<!-- node_d4409751557498203133 -->
<g id="node5" class="node">
<title>node_d4409751557498203133</title>
<g id="a_node5"><a xlink:href="javascript:
                { window.open(location.pathname.match(/.*\//) + 'tmp/' + 'tmp6e6ml7kv.html', '_blank', 'width=800,height=200'); }
            " xlink:title="&lt;TABLE&gt;">
<polygon fill="#880000" fill-opacity="0.133333" stroke="#880000" stroke-opacity="0.133333" points="363.5,-228 224.5,-228 224.5,-184 363.5,-184 363.5,-228"/>
<text text-anchor="start" x="256.5" y="-209.8" font-family="Helvetica,Arial,sans-serif" font-size="14.00"> </text>
<text text-anchor="start" x="260.5" y="-209.8" font-family="Helvetica,Arial,sans-serif" font-weight="bold" font-size="14.00">ObjState#8</text>
<text text-anchor="start" x="237" y="-195.8" font-family="Helvetica,Arial,sans-serif" font-size="14.00">DataFrame (3, 3) 0</text>
</a>
</g>
</g>
<!-- node_d4835722769566520107 -->
<g id="node11" class="node">
<title>node_d4835722769566520107</title>
<polygon fill="lightgrey" stroke="transparent" points="525.5,-133 62.5,-133 62.5,-97 525.5,-97 525.5,-133"/>
<text text-anchor="start" x="75" y="-111.8" font-family="Helvetica,Arial,sans-serif" font-style="italic" font-size="14.00">add_column</text>
<text text-anchor="start" x="150" y="-111.8" font-family="Helvetica,Arial,sans-serif" font-size="14.00"> &#160;(</text>
<text text-anchor="start" x="163" y="-111.8" font-family="Helvetica,Arial,sans-serif" font-weight="bold" font-size="14.00">df</text>
<text text-anchor="start" x="176" y="-111.8" font-family="Helvetica,Arial,sans-serif" font-size="14.00">, column_name = Google, value = [450.0, 550.0, 800.0])</text>
</g>
<!-- node_d4409751557498203133&#45;&gt;node_d4835722769566520107 -->
<g id="edge9" class="edge">
<title>node_d4409751557498203133&#45;&gt;node_d4835722769566520107</title>
<path fill="none" stroke="black" d="M294,-183.91C294,-171.78 294,-156.41 294,-143.36"/>
<polygon fill="black" stroke="black" points="297.5,-143.07 294,-133.07 290.5,-143.07 297.5,-143.07"/>
<text text-anchor="middle" x="300" y="-154.8" font-family="Helvetica,Arial,sans-serif" font-size="14.00">df</text>
</g>
<!-- node_5775600945679003725 -->
<g id="node6" class="node">
<title>node_5775600945679003725</title>
<g id="a_node6"><a xlink:href="javascript:
                { window.open(location.pathname.match(/.*\//) + 'tmp/' + 'tmpusxlkvb5.html', '_blank', 'width=800,height=200'); }
            " xlink:title="&lt;TABLE&gt;">
<polygon fill="#880000" fill-opacity="0.133333" stroke="#880000" stroke-opacity="0.133333" points="363.5,-60 224.5,-60 224.5,-16 363.5,-16 363.5,-60"/>
<text text-anchor="start" x="253" y="-41.8" font-family="Helvetica,Arial,sans-serif" font-size="14.00"> </text>
<text text-anchor="start" x="257" y="-41.8" font-family="Helvetica,Arial,sans-serif" font-weight="bold" font-size="14.00">ObjState#10</text>
<text text-anchor="start" x="237" y="-27.8" font-family="Helvetica,Arial,sans-serif" font-size="14.00">DataFrame (3, 4) 0</text>
</a>
</g>
</g>
<!-- node_9030299476992308626&#45;&gt;node_685094445650686846 -->
<g id="edge2" class="edge">
<title>node_9030299476992308626&#45;&gt;node_685094445650686846</title>
<path fill="none" stroke="black" d="M294,-768.98C294,-761.15 294,-751.61 294,-742.54"/>
<polygon fill="black" stroke="black" points="297.5,-742.24 294,-732.24 290.5,-742.24 297.5,-742.24"/>
</g>
<!-- node_d3732962444798011135&#45;&gt;node_d138919966706346484 -->
<g id="edge4" class="edge">
<title>node_d3732962444798011135&#45;&gt;node_d138919966706346484</title>
<path fill="none" stroke="black" d="M294,-600.98C294,-593.15 294,-583.61 294,-574.54"/>
<polygon fill="black" stroke="black" points="297.5,-574.24 294,-564.24 290.5,-574.24 297.5,-574.24"/>
</g>
<!-- node_d4667482954859720337&#45;&gt;node_d4972693726235307042 -->
<g id="edge6" class="edge">
<title>node_d4667482954859720337&#45;&gt;node_d4972693726235307042</title>
<path fill="none" stroke="black" d="M294,-432.98C294,-425.15 294,-415.61 294,-406.54"/>
<polygon fill="black" stroke="black" points="297.5,-406.24 294,-396.24 290.5,-406.24 297.5,-406.24"/>
</g>
<!-- node_d6662892302909316973&#45;&gt;node_d4409751557498203133 -->
<g id="edge8" class="edge">
<title>node_d6662892302909316973&#45;&gt;node_d4409751557498203133</title>
<path fill="none" stroke="black" d="M294,-264.98C294,-257.15 294,-247.61 294,-238.54"/>
<polygon fill="black" stroke="black" points="297.5,-238.24 294,-228.24 290.5,-238.24 297.5,-238.24"/>
</g>
<!-- node_d4835722769566520107&#45;&gt;node_5775600945679003725 -->
<g id="edge10" class="edge">
<title>node_d4835722769566520107&#45;&gt;node_5775600945679003725</title>
<path fill="none" stroke="black" d="M294,-96.98C294,-89.15 294,-79.61 294,-70.54"/>
<polygon fill="black" stroke="black" points="297.5,-70.24 294,-60.24 290.5,-70.24 297.5,-70.24"/>
</g>
</g>
</svg>
